HIERARCHY
ROOT Hips
{
	OFFSET -0.001795 -0.223333 0.028219
	CHANNELS 6 Xposition Yposition Zposition Zrotation Yrotation Xrotation 
	JOINT LeftUpLeg
	{
		OFFSET 0.069520 -0.091406 -0.006815
		CHANNELS 3 Zrotation Yrotation Xrotation
		JOINT LeftLeg
		{
			OFFSET 0.034277 -0.375199 -0.004496
			CHANNELS 3 Zrotation Yrotation Xrotation
			JOINT LeftFoot
			{
				OFFSET -0.013596 -0.397961 -0.043693
				CHANNELS 3 Zrotation Yrotation Xrotation
				JOINT LeftToe
				{
					OFFSET 0.026358 -0.055791 0.119288
					CHANNELS 3 Zrotation Yrotation Xrotation
					End Site
					{
						OFFSET 0.000000 0.000000 0.000000
					}
				}
			}
		}
	}
	JOINT RightUpLeg
	{
		OFFSET -0.067670 -0.090522 -0.004320
		CHANNELS 3 Zrotation Yrotation Xrotation
		JOINT RightLeg
		{
			OFFSET -0.038290 -0.382569 -0.008850
			CHANNELS 3 Zrotation Yrotation Xrotation
			JOINT RightFoot
			{
				OFFSET 0.015774 -0.398415 -0.042312
				CHANNELS 3 Zrotation Yrotation Xrotation
				JOINT RightToe
				{
					OFFSET -0.025372 -0.048144 0.123348
					CHANNELS 3 Zrotation Yrotation Xrotation
					End Site
					{
						OFFSET 0.000000 0.000000 0.000000
					}
				}
			}
		}
	}
	JOINT Spine
	{
		OFFSET -0.002533 0.108963 -0.026696
		CHANNELS 3 Zrotation Yrotation Xrotation
		JOINT Spine1
		{
			OFFSET 0.005487 0.135180 0.001092
			CHANNELS 3 Zrotation Yrotation Xrotation
			JOINT Spine2
			{
				OFFSET 0.001457 0.052922 0.025425
				CHANNELS 3 Zrotation Yrotation Xrotation
				JOINT Neck
				{
					OFFSET -0.002778 0.213870 -0.042857
					CHANNELS 3 Zrotation Yrotation Xrotation
					JOINT Head
					{
						OFFSET 0.005152 0.064970 0.051349
						CHANNELS 3 Zrotation Yrotation Xrotation
						End Site
						{
							OFFSET 0.000000 0.000000 0.000000
						}
					}
				}
				JOINT LeftShoulder
				{
					OFFSET 0.078845 0.121749 -0.034090
					CHANNELS 3 Zrotation Yrotation Xrotation
					JOINT LeftArm
					{
						OFFSET 0.090977 0.030469 -0.008868
						CHANNELS 3 Zrotation Yrotation Xrotation
						JOINT LeftForeArm
						{
							OFFSET 0.259612 -0.012772 -0.027456
							CHANNELS 3 Zrotation Yrotation Xrotation
							JOINT LeftHand
							{
								OFFSET 0.249234 0.008986 -0.001171
								CHANNELS 3 Zrotation Yrotation Xrotation
								End Site
								{
									OFFSET 0.000000 0.000000 0.000000
								}
							}
						}
					}
				}
				JOINT RightShoulder
				{
					OFFSET -0.081759 0.118833 -0.038615
					CHANNELS 3 Zrotation Yrotation Xrotation
					JOINT RightArm
					{
						OFFSET -0.096012 0.032551 -0.009143
						CHANNELS 3 Zrotation Yrotation Xrotation
						JOINT RightForeArm
						{
							OFFSET -0.253742 -0.013329 -0.021401
							CHANNELS 3 Zrotation Yrotation Xrotation
							JOINT RightHand
							{
								OFFSET -0.255298 0.007772 -0.005559
								CHANNELS 3 Zrotation Yrotation Xrotation
								End Site
								{
									OFFSET 0.000000 0.000000 0.000000
								}
							}
						}
					}
				}
			}
		}
	}
}
MOTION
Frames: 6
Frame Time: 0.050000
0.000000 0.957370 0.000000 -1.107085 -3.031170 -0.002524 3.182102 0.182357 3.036285 -1.897363 0.266450 -2.734073 -1.280344 2.123963 11.919365 0.000000 0.000000 0.000000 -4.023462 0.133410 -0.208994 2.018654 -0.123353 3.244522 -0.174143 -5.821435 12.236449 0.000000 0.000000 0.000000 6.902821 -0.438564 3.867701 -6.091917 2.173313 -19.122202 -1.030839 5.831388 25.457113 10.017625 -3.683343 -25.338375 0.000000 0.000000 0.000000 -25.232919 -14.051116 5.641781 -42.360486 -2.870310 -5.490530 -80.785227 -66.701262 62.475152 0.000000 0.000000 0.000000 31.865075 1.477836 0.557838 47.218731 7.854406 -4.248162 74.604536 66.903272 59.828445 0.000000 0.000000 0.000000 
-0.000298 0.956730 0.000960 -1.397875 -2.660682 0.729296 3.860195 0.148429 3.004948 -2.448061 0.332155 -4.034220 -1.502528 1.826707 12.009572 0.000000 0.000000 0.000000 -3.925213 0.148100 -0.437886 2.382221 -0.184045 2.670811 -0.148933 -5.617214 11.943141 0.000000 0.000000 0.000000 7.064468 -0.374890 3.007249 -6.965527 2.421220 -19.307066 -0.289904 5.533926 26.096121 10.073998 -3.542653 -26.487215 0.000000 0.000000 0.000000 -25.156466 -14.103464 5.732191 -41.679005 -3.220031 -5.339159 -84.621815 -66.050740 65.311293 0.000000 0.000000 0.000000 31.371966 0.178338 -0.343711 48.083450 6.859602 -4.701651 81.887901 65.696750 65.301705 0.000000 0.000000 0.000000 
-0.000520 0.956771 0.001493 -0.953781 -2.470626 0.791310 3.484381 0.111440 2.256731 -2.590466 0.328851 -2.870813 -1.548022 1.732863 11.902778 0.000000 0.000000 0.000000 -4.139462 0.166953 -0.656362 2.011974 -0.132850 2.944824 -0.382241 -6.019364 11.888913 0.000000 0.000000 0.000000 7.276212 -0.330248 2.495807 -6.775120 2.377279 -19.130145 -1.095887 5.878494 26.416346 10.221185 -3.604535 -26.308687 0.000000 0.000000 0.000000 -24.473057 -13.621949 5.279881 -41.326475 -3.856344 -5.110398 -84.746144 -65.816523 65.013721 0.000000 0.000000 0.000000 32.649069 0.983094 0.396636 46.556495 7.131697 -4.621889 79.899272 66.012320 63.800722 0.000000 0.000000 0.000000 
-0.000880 0.957460 0.001880 -0.945750 -1.841327 0.889462 3.696988 0.093141 2.168516 -2.827797 0.347663 -3.018452 -1.922521 1.281860 12.162353 0.000000 0.000000 0.000000 -4.287897 0.147331 -0.357731 2.350377 -0.190697 2.421297 -0.500736 -6.281472 12.272038 0.000000 0.000000 0.000000 7.362001 -0.281205 1.961964 -6.812627 2.413135 -18.857965 -1.262653 5.967364 26.864676 10.749564 -3.776440 -26.730738 0.000000 0.000000 0.000000 -25.021148 -14.834980 5.852715 -41.075200 -3.470440 -5.151475 -85.837197 -66.115379 66.140132 0.000000 0.000000 0.000000 33.239856 0.685454 0.441997 46.538238 7.013978 -4.799141 82.982624 66.512282 67.432852 0.000000 0.000000 0.000000 
-0.001317 0.957779 0.002207 -0.869068 -1.866026 0.648711 3.458707 0.098588 2.112497 -2.508515 0.312876 -2.419922 -1.880602 1.329000 12.105512 0.000000 0.000000 0.000000 -4.301445 0.118769 0.082091 2.250579 -0.184683 2.130308 -0.435730 -6.191158 12.357104 0.000000 0.000000 0.000000 7.079382 -0.274269 2.019238 -6.307066 2.295491 -18.032641 -1.511353 5.969090 26.057341 10.541435 -3.831244 -25.566071 0.000000 0.000000 0.000000 -24.645800 -14.770448 5.759470 -41.506401 -3.550629 -5.111711 -86.072978 -66.254663 66.446797 0.000000 0.000000 0.000000 33.044274 0.872223 0.536300 46.167809 6.911605 -4.716321 81.836830 66.638508 66.341783 0.000000 0.000000 0.000000 
-0.001712 0.958223 0.002546 -0.935372 -1.972278 0.624519 3.568923 0.103057 2.215739 -2.544573 0.317552 -2.489001 -1.863686 1.395899 12.246195 0.000000 0.000000 0.000000 -4.283045 0.105532 0.301743 2.360532 -0.198849 2.052296 -0.306142 -5.850846 12.022951 0.000000 0.000000 0.000000 7.186219 -0.263912 1.901314 -6.483428 2.334454 -18.362565 -1.323364 5.992156 26.653404 10.273332 -3.679868 -25.669674 0.000000 0.000000 0.000000 -24.451974 -15.196802 6.060498 -41.861093 -3.754207 -5.152634 -85.524541 -66.735185 66.527860 0.000000 0.000000 0.000000 33.156399 1.372872 0.908545 45.861093 6.753058 -4.809128 82.841626 67.520215 68.159474 0.000000 0.000000 0.000000 
